<mxfile host="app.diagrams.net" modified="2024-05-07T08:30:15.764Z" agent="Mozilla/5.0 (Macintosh; Intel Mac OS X 10_15_7) AppleWebKit/537.36 (KHTML, like Gecko) Chrome/124.0.0.0 Safari/537.36" etag="xwBa7DMglboqHMsNfD_O" version="24.2.5" type="github">
  <diagram id="C5RBs43oDa-KdzZeNtuy" name="Page-1">
    <mxGraphModel dx="2340" dy="1008" grid="0" gridSize="10" guides="1" tooltips="1" connect="1" arrows="1" fold="1" page="0" pageScale="1" pageWidth="827" pageHeight="1169" math="0" shadow="0">
      <root>
        <mxCell id="WIyWlLk6GJQsqaUBKTNV-0" />
        <mxCell id="WIyWlLk6GJQsqaUBKTNV-1" parent="WIyWlLk6GJQsqaUBKTNV-0" />
        <mxCell id="Qp76fDhDBuy7kDstvcHe-21" style="edgeStyle=orthogonalEdgeStyle;rounded=0;orthogonalLoop=1;jettySize=auto;html=1;exitX=0.5;exitY=1;exitDx=0;exitDy=0;entryX=0.5;entryY=0;entryDx=0;entryDy=0;" edge="1" parent="WIyWlLk6GJQsqaUBKTNV-1" source="WIyWlLk6GJQsqaUBKTNV-3" target="WIyWlLk6GJQsqaUBKTNV-6">
          <mxGeometry relative="1" as="geometry" />
        </mxCell>
        <mxCell id="WIyWlLk6GJQsqaUBKTNV-3" value="调度程序" style="rounded=1;whiteSpace=wrap;html=1;fontSize=12;glass=0;strokeWidth=1;shadow=0;" parent="WIyWlLk6GJQsqaUBKTNV-1" vertex="1">
          <mxGeometry x="140" y="70" width="120" height="40" as="geometry" />
        </mxCell>
        <mxCell id="Qp76fDhDBuy7kDstvcHe-16" style="edgeStyle=orthogonalEdgeStyle;rounded=0;orthogonalLoop=1;jettySize=auto;html=1;exitX=0.5;exitY=1;exitDx=0;exitDy=0;entryX=0.5;entryY=0;entryDx=0;entryDy=0;" edge="1" parent="WIyWlLk6GJQsqaUBKTNV-1" source="WIyWlLk6GJQsqaUBKTNV-6" target="Qp76fDhDBuy7kDstvcHe-3">
          <mxGeometry relative="1" as="geometry" />
        </mxCell>
        <mxCell id="Qp76fDhDBuy7kDstvcHe-17" style="edgeStyle=orthogonalEdgeStyle;rounded=0;orthogonalLoop=1;jettySize=auto;html=1;exitX=1;exitY=0.5;exitDx=0;exitDy=0;entryX=0;entryY=0.5;entryDx=0;entryDy=0;" edge="1" parent="WIyWlLk6GJQsqaUBKTNV-1" source="WIyWlLk6GJQsqaUBKTNV-6" target="WIyWlLk6GJQsqaUBKTNV-7">
          <mxGeometry relative="1" as="geometry" />
        </mxCell>
        <mxCell id="WIyWlLk6GJQsqaUBKTNV-6" value="&lt;font style=&quot;font-size: 10px;&quot;&gt;指定路径 pid 文件是否存在&lt;/font&gt;" style="rhombus;whiteSpace=wrap;html=1;shadow=0;fontFamily=Helvetica;fontSize=12;align=center;strokeWidth=1;spacing=6;spacingTop=-4;" parent="WIyWlLk6GJQsqaUBKTNV-1" vertex="1">
          <mxGeometry x="130" y="160" width="140" height="70" as="geometry" />
        </mxCell>
        <mxCell id="Qp76fDhDBuy7kDstvcHe-0" style="edgeStyle=orthogonalEdgeStyle;rounded=0;orthogonalLoop=1;jettySize=auto;html=1;exitX=0.5;exitY=0;exitDx=0;exitDy=0;entryX=1;entryY=0.5;entryDx=0;entryDy=0;" edge="1" parent="WIyWlLk6GJQsqaUBKTNV-1" source="WIyWlLk6GJQsqaUBKTNV-7" target="WIyWlLk6GJQsqaUBKTNV-3">
          <mxGeometry relative="1" as="geometry" />
        </mxCell>
        <mxCell id="WIyWlLk6GJQsqaUBKTNV-7" value="轮询等待" style="rounded=1;whiteSpace=wrap;html=1;fontSize=12;glass=0;strokeWidth=1;shadow=0;" parent="WIyWlLk6GJQsqaUBKTNV-1" vertex="1">
          <mxGeometry x="354" y="175" width="120" height="40" as="geometry" />
        </mxCell>
        <mxCell id="Qp76fDhDBuy7kDstvcHe-13" style="edgeStyle=orthogonalEdgeStyle;rounded=0;orthogonalLoop=1;jettySize=auto;html=1;exitX=0.5;exitY=1;exitDx=0;exitDy=0;" edge="1" parent="WIyWlLk6GJQsqaUBKTNV-1" source="Qp76fDhDBuy7kDstvcHe-2" target="Qp76fDhDBuy7kDstvcHe-12">
          <mxGeometry relative="1" as="geometry" />
        </mxCell>
        <mxCell id="Qp76fDhDBuy7kDstvcHe-2" value="&lt;font style=&quot;font-size: 10px;&quot;&gt;将pid文件搬运到全域指定的sftp&lt;/font&gt;" style="rounded=1;whiteSpace=wrap;html=1;" vertex="1" parent="WIyWlLk6GJQsqaUBKTNV-1">
          <mxGeometry x="140" y="430" width="120" height="60" as="geometry" />
        </mxCell>
        <mxCell id="Qp76fDhDBuy7kDstvcHe-6" style="edgeStyle=orthogonalEdgeStyle;rounded=0;orthogonalLoop=1;jettySize=auto;html=1;exitX=1;exitY=0.5;exitDx=0;exitDy=0;entryX=0;entryY=0.5;entryDx=0;entryDy=0;" edge="1" parent="WIyWlLk6GJQsqaUBKTNV-1" source="Qp76fDhDBuy7kDstvcHe-3" target="Qp76fDhDBuy7kDstvcHe-5">
          <mxGeometry relative="1" as="geometry" />
        </mxCell>
        <mxCell id="Qp76fDhDBuy7kDstvcHe-9" style="edgeStyle=orthogonalEdgeStyle;rounded=0;orthogonalLoop=1;jettySize=auto;html=1;exitX=0.5;exitY=1;exitDx=0;exitDy=0;" edge="1" parent="WIyWlLk6GJQsqaUBKTNV-1" source="Qp76fDhDBuy7kDstvcHe-3" target="Qp76fDhDBuy7kDstvcHe-2">
          <mxGeometry relative="1" as="geometry" />
        </mxCell>
        <mxCell id="Qp76fDhDBuy7kDstvcHe-3" value="&lt;span style=&quot;font-size: 10px;&quot;&gt;文件大小是否超过200MB&lt;/span&gt;" style="rhombus;whiteSpace=wrap;html=1;shadow=0;fontFamily=Helvetica;fontSize=12;align=center;strokeWidth=1;spacing=6;spacingTop=-4;" vertex="1" parent="WIyWlLk6GJQsqaUBKTNV-1">
          <mxGeometry x="130" y="280" width="140" height="70" as="geometry" />
        </mxCell>
        <mxCell id="Qp76fDhDBuy7kDstvcHe-7" style="edgeStyle=orthogonalEdgeStyle;rounded=0;orthogonalLoop=1;jettySize=auto;html=1;exitX=0.5;exitY=1;exitDx=0;exitDy=0;entryX=1;entryY=0.5;entryDx=0;entryDy=0;" edge="1" parent="WIyWlLk6GJQsqaUBKTNV-1" source="Qp76fDhDBuy7kDstvcHe-5" target="Qp76fDhDBuy7kDstvcHe-2">
          <mxGeometry relative="1" as="geometry" />
        </mxCell>
        <mxCell id="Qp76fDhDBuy7kDstvcHe-5" value="&lt;font style=&quot;font-size: 10px;&quot;&gt;切包&lt;/font&gt;" style="rounded=1;whiteSpace=wrap;html=1;" vertex="1" parent="WIyWlLk6GJQsqaUBKTNV-1">
          <mxGeometry x="354" y="285" width="120" height="60" as="geometry" />
        </mxCell>
        <mxCell id="Qp76fDhDBuy7kDstvcHe-10" value="No" style="text;html=1;align=center;verticalAlign=middle;whiteSpace=wrap;rounded=0;" vertex="1" parent="WIyWlLk6GJQsqaUBKTNV-1">
          <mxGeometry x="200" y="370" width="50" height="30" as="geometry" />
        </mxCell>
        <mxCell id="Qp76fDhDBuy7kDstvcHe-11" value="Yes" style="text;html=1;align=center;verticalAlign=middle;whiteSpace=wrap;rounded=0;" vertex="1" parent="WIyWlLk6GJQsqaUBKTNV-1">
          <mxGeometry x="280" y="290" width="50" height="30" as="geometry" />
        </mxCell>
        <mxCell id="Qp76fDhDBuy7kDstvcHe-15" style="edgeStyle=orthogonalEdgeStyle;rounded=0;orthogonalLoop=1;jettySize=auto;html=1;exitX=0.5;exitY=1;exitDx=0;exitDy=0;entryX=0.5;entryY=0;entryDx=0;entryDy=0;" edge="1" parent="WIyWlLk6GJQsqaUBKTNV-1" source="Qp76fDhDBuy7kDstvcHe-12" target="Qp76fDhDBuy7kDstvcHe-14">
          <mxGeometry relative="1" as="geometry" />
        </mxCell>
        <mxCell id="Qp76fDhDBuy7kDstvcHe-12" value="&lt;font style=&quot;font-size: 11px;&quot;&gt;触发全域mapping任务&lt;/font&gt;" style="rounded=1;whiteSpace=wrap;html=1;" vertex="1" parent="WIyWlLk6GJQsqaUBKTNV-1">
          <mxGeometry x="140" y="530" width="120" height="60" as="geometry" />
        </mxCell>
        <mxCell id="Qp76fDhDBuy7kDstvcHe-20" style="edgeStyle=orthogonalEdgeStyle;rounded=0;orthogonalLoop=1;jettySize=auto;html=1;exitX=0.5;exitY=1;exitDx=0;exitDy=0;entryX=0.5;entryY=0;entryDx=0;entryDy=0;" edge="1" parent="WIyWlLk6GJQsqaUBKTNV-1" source="Qp76fDhDBuy7kDstvcHe-14" target="Qp76fDhDBuy7kDstvcHe-19">
          <mxGeometry relative="1" as="geometry" />
        </mxCell>
        <mxCell id="Qp76fDhDBuy7kDstvcHe-24" style="edgeStyle=orthogonalEdgeStyle;rounded=0;orthogonalLoop=1;jettySize=auto;html=1;exitX=1;exitY=0.5;exitDx=0;exitDy=0;entryX=-0.023;entryY=0.499;entryDx=0;entryDy=0;entryPerimeter=0;" edge="1" parent="WIyWlLk6GJQsqaUBKTNV-1" source="Qp76fDhDBuy7kDstvcHe-14" target="Qp76fDhDBuy7kDstvcHe-25">
          <mxGeometry relative="1" as="geometry">
            <mxPoint x="410" y="660" as="targetPoint" />
          </mxGeometry>
        </mxCell>
        <mxCell id="Qp76fDhDBuy7kDstvcHe-14" value="&lt;font style=&quot;font-size: 11px;&quot;&gt;获取到mapping之后的did文件路径，作为入参触发全域tagging任务&lt;/font&gt;" style="rounded=1;whiteSpace=wrap;html=1;" vertex="1" parent="WIyWlLk6GJQsqaUBKTNV-1">
          <mxGeometry x="140" y="630" width="120" height="60" as="geometry" />
        </mxCell>
        <mxCell id="Qp76fDhDBuy7kDstvcHe-18" value="No" style="text;html=1;align=center;verticalAlign=middle;whiteSpace=wrap;rounded=0;" vertex="1" parent="WIyWlLk6GJQsqaUBKTNV-1">
          <mxGeometry x="280" y="170" width="50" height="30" as="geometry" />
        </mxCell>
        <mxCell id="Qp76fDhDBuy7kDstvcHe-28" style="edgeStyle=orthogonalEdgeStyle;rounded=0;orthogonalLoop=1;jettySize=auto;html=1;exitX=0.5;exitY=1;exitDx=0;exitDy=0;entryX=0.5;entryY=0;entryDx=0;entryDy=0;" edge="1" parent="WIyWlLk6GJQsqaUBKTNV-1" source="Qp76fDhDBuy7kDstvcHe-19" target="Qp76fDhDBuy7kDstvcHe-27">
          <mxGeometry relative="1" as="geometry" />
        </mxCell>
        <mxCell id="Qp76fDhDBuy7kDstvcHe-19" value="&lt;span style=&quot;font-size: 11px;&quot;&gt;回调接口（获取到tagging任务状态）&lt;/span&gt;" style="rounded=1;whiteSpace=wrap;html=1;" vertex="1" parent="WIyWlLk6GJQsqaUBKTNV-1">
          <mxGeometry x="140" y="740" width="120" height="60" as="geometry" />
        </mxCell>
        <mxCell id="Qp76fDhDBuy7kDstvcHe-22" value="搬运TD标准标签和DMP媒体标签数据文件到hdfs" style="rounded=1;whiteSpace=wrap;html=1;" vertex="1" parent="WIyWlLk6GJQsqaUBKTNV-1">
          <mxGeometry x="140" y="955" width="120" height="60" as="geometry" />
        </mxCell>
        <mxCell id="Qp76fDhDBuy7kDstvcHe-25" value="返回did数据搬运至SMC可识别的集群路径，并邮件告知路径" style="rounded=1;whiteSpace=wrap;html=1;" vertex="1" parent="WIyWlLk6GJQsqaUBKTNV-1">
          <mxGeometry x="370" y="630" width="120" height="60" as="geometry" />
        </mxCell>
        <mxCell id="Qp76fDhDBuy7kDstvcHe-26" value="By 月份" style="text;html=1;align=center;verticalAlign=middle;whiteSpace=wrap;rounded=0;" vertex="1" parent="WIyWlLk6GJQsqaUBKTNV-1">
          <mxGeometry x="294" y="630" width="60" height="30" as="geometry" />
        </mxCell>
        <mxCell id="Qp76fDhDBuy7kDstvcHe-29" style="edgeStyle=orthogonalEdgeStyle;rounded=0;orthogonalLoop=1;jettySize=auto;html=1;exitX=0.5;exitY=1;exitDx=0;exitDy=0;entryX=0.5;entryY=0;entryDx=0;entryDy=0;" edge="1" parent="WIyWlLk6GJQsqaUBKTNV-1" source="Qp76fDhDBuy7kDstvcHe-27" target="Qp76fDhDBuy7kDstvcHe-22">
          <mxGeometry relative="1" as="geometry" />
        </mxCell>
        <mxCell id="Qp76fDhDBuy7kDstvcHe-27" value="根据tagging结果计算获取补充率、增补率" style="rounded=1;whiteSpace=wrap;html=1;" vertex="1" parent="WIyWlLk6GJQsqaUBKTNV-1">
          <mxGeometry x="140" y="846" width="120" height="60" as="geometry" />
        </mxCell>
      </root>
    </mxGraphModel>
  </diagram>
</mxfile>
